<?xml version="1.0" encoding="UTF-8"?>
<svg version="1.1" xmlns="http://www.w3.org/2000/svg" width="512" height="512">
<path d="M0 0 C1.12249962 -0.00256327 2.24499924 -0.00512655 3.40151399 -0.0077675 C7.14644048 -0.01269175 10.89095992 0.00376564 14.635849 0.02018738 C17.32680669 0.02103394 20.01773977 0.0206899 22.70869446 0.01885986 C28.49371584 0.01729066 34.27863531 0.02666277 40.06363106 0.04357338 C48.42763435 0.06800692 56.79158862 0.07577309 65.15562373 0.07953735 C78.72734781 0.08609502 92.29901764 0.10603756 105.87071228 0.13444519 C119.05039703 0.16200351 132.23006702 0.1832284 145.40977478 0.19596863 C146.6294027 0.19715088 146.6294027 0.19715088 147.87366957 0.19835702 C151.95288522 0.20227228 156.03210098 0.20606337 160.1113168 0.20979273 C193.92544174 0.24086731 227.73950101 0.29368441 261.55357361 0.36076355 C261.56237297 1.1852298 261.56237297 1.1852298 261.5713501 2.02635193 C261.63581903 7.80285737 261.72036843 13.5788329 261.81602478 19.35490417 C261.84905931 21.50392116 261.87715636 23.65302043 261.90000916 25.8021698 C261.9556218 49.09472911 261.9556218 49.09472911 272.86607361 69.04826355 C282.92420537 77.70293507 292.44136205 79.52560503 305.42076111 79.4584198 C306.45548553 79.45700485 307.49020996 79.4555899 308.55628967 79.45413208 C311.84708093 79.44855394 315.13780307 79.43600543 318.42857361 79.42326355 C320.66555179 79.41824573 322.90253104 79.41368331 325.13951111 79.40959167 C330.61088868 79.39859167 336.08222621 79.38187532 341.55357361 79.36076355 C341.64513572 125.3071852 341.71561569 171.25359719 341.75783493 217.2000921 C341.76283773 222.62490591 341.76801502 228.04971954 341.77330017 233.47453308 C341.77434941 234.55451252 341.77539865 235.63449197 341.77647969 236.74719806 C341.79388333 254.23242441 341.82542082 271.71759815 341.86218479 289.20279329 C341.89959531 307.14517518 341.9218097 325.08752953 341.92992759 343.02994883 C341.93541512 354.10074689 341.95274501 365.1713962 341.98523948 376.24214847 C342.0063887 383.83452023 342.01277271 391.42681513 342.00757912 399.0192142 C342.00501799 403.39918139 342.00893489 407.77888871 342.03039551 412.15880966 C342.04991733 416.17242122 342.05080736 420.18559911 342.03716919 424.19923098 C342.0354846 425.64759112 342.04051119 427.09597875 342.05310634 428.5442851 C342.1357041 438.63258412 340.90456945 446.13715239 335.42857361 454.67326355 C327.40506366 462.17350111 319.26796152 463.08876813 308.62449646 462.99568176 C307.23292477 463.00145216 305.84136072 463.00939942 304.44981241 463.01931798 C300.64917157 463.0400891 296.84916271 463.02992116 293.04852033 463.01438689 C288.94072124 463.00303706 284.83302804 463.02055403 280.72525024 463.0342865 C272.68732887 463.05648483 264.64964133 463.05173295 256.61171091 463.03722329 C250.0774045 463.02591762 243.54316349 463.0244059 237.0088501 463.02984238 C236.07779549 463.03060854 235.14674088 463.03137471 234.18747249 463.03216409 C232.29587613 463.03376276 230.40427978 463.03538383 228.51268345 463.03702705 C210.78760376 463.05127457 193.0626535 463.03490747 175.33759505 463.00802521 C160.13852701 462.98568734 144.93964992 462.98956775 129.74058533 463.01261902 C112.07764529 463.03939463 94.4148186 463.04990137 76.7518611 463.0345577 C74.86733979 463.032965 72.98281846 463.03139315 71.09829712 463.02984238 C70.17114896 463.029071 69.2440008 463.02829962 68.28875723 463.02750487 C61.76455959 463.02319316 55.24043403 463.03046302 48.71624756 463.04224014 C40.76215204 463.05628326 32.80830314 463.0524272 24.85423577 463.02583642 C20.79820572 463.0127225 16.74258641 463.00750409 12.68655968 463.02408218 C8.96926585 463.03904567 5.25276119 463.03068973 1.53553838 463.00419442 C-0.43694033 462.99601519 -2.40947436 463.01223004 -4.38189459 463.02948058 C-12.90993288 462.93585447 -19.87688967 461.49346696 -26.35490656 455.63472807 C-34.60974141 447.06976223 -33.87926947 436.52141053 -33.84083557 425.44526672 C-33.8457269 423.70481945 -33.85191782 421.96437543 -33.85929346 420.22393692 C-33.87568533 415.44980476 -33.87337657 410.67583783 -33.86791849 405.90168738 C-33.86524739 400.7495571 -33.87978157 395.59747077 -33.89201355 390.44535828 C-33.91306598 380.35514591 -33.91760852 370.26499101 -33.91582566 360.17475928 C-33.914518 351.97327374 -33.9183224 343.77180612 -33.92575073 335.57032394 C-33.92784993 333.20783325 -33.92994753 330.84534256 -33.93204355 328.48285186 C-33.93308708 327.30697418 -33.93413061 326.1310965 -33.93520576 324.91958617 C-33.95410721 302.68171761 -33.95305815 280.44388204 -33.94623643 258.20600878 C-33.94066043 237.86306249 -33.96148905 217.52024212 -33.9945969 197.17732526 C-34.02833074 176.28760362 -34.04350265 155.39794229 -34.03887987 134.5081929 C-34.03663496 122.78082253 -34.04188175 111.05356856 -34.06677246 99.32622147 C-34.08778151 89.34276332 -34.09138136 79.35948539 -34.07247287 69.37601985 C-34.06331288 64.28308454 -34.06218032 59.1904853 -34.08282852 54.09757614 C-34.10153146 49.43286111 -34.09704257 44.76875758 -34.07428271 40.10406588 C-34.07009527 38.41907678 -34.07430183 36.73404086 -34.08787864 35.04910125 C-34.16457062 24.83338105 -33.72066222 16.17857646 -26.51526022 8.23056614 C-19.01180433 0.77468146 -10.16267346 -0.08571972 0 0 Z M5.55357361 63.36076355 C5.22024028 65.86076355 5.22024028 65.86076355 5.55357361 68.36076355 C8.30396665 71.11115659 9.85012796 70.61219561 13.70298767 70.61473083 C15.01545471 70.62037048 16.32792175 70.62601013 17.68016052 70.63182068 C19.14317376 70.6279317 20.60618647 70.62383534 22.06919861 70.61955261 C23.60317654 70.62226135 25.13715317 70.62582161 26.67112732 70.63017273 C30.84459606 70.63931303 35.01796624 70.63574575 39.19143677 70.62941456 C43.55206067 70.62436303 47.91267595 70.62904364 52.27330017 70.63218689 C59.59720887 70.63582901 66.92107727 70.63102099 74.24497986 70.62150574 C82.72126621 70.61062071 91.19745636 70.61414611 99.67374039 70.62515855 C106.94170075 70.63422442 114.20963209 70.63552014 121.47759628 70.63028121 C125.82264026 70.62715765 130.16763896 70.62676272 134.51268005 70.63335419 C138.59693929 70.63911688 142.68107408 70.63515063 146.76531982 70.62356567 C148.26738274 70.6209133 149.76945607 70.62169398 151.27151489 70.626091 C153.31572606 70.63152493 155.35996003 70.62351473 157.40415955 70.61473083 C158.55011597 70.61397678 159.69607239 70.61322273 160.87675476 70.61244583 C163.7060507 70.63349282 163.7060507 70.63349282 165.55357361 68.36076355 C165.88690694 65.86076355 165.88690694 65.86076355 165.55357361 63.36076355 C162.80318057 60.61037051 161.25701925 61.10933149 157.40415955 61.10679626 C156.0916925 61.10115662 154.77922546 61.09551697 153.42698669 61.08970642 C151.96397345 61.0935954 150.50096075 61.09769176 149.03794861 61.10197449 C147.50397068 61.09926575 145.96999405 61.09570549 144.4360199 61.09135437 C140.26255116 61.08221407 136.08918098 61.08578135 131.91571045 61.09211254 C127.55508654 61.09716407 123.19447127 61.09248346 118.83384705 61.08934021 C111.50993835 61.08569808 104.18606994 61.09050611 96.86216736 61.10002136 C88.385881 61.11090639 79.90969085 61.10738099 71.43340683 61.09636855 C64.16544647 61.08730268 56.89751512 61.08600696 49.62955093 61.09124589 C45.28450696 61.09436945 40.93950826 61.09476438 36.59446716 61.08817291 C32.51020793 61.08241022 28.42607314 61.08637647 24.34182739 61.09796143 C22.83976448 61.1006138 21.33769115 61.09983312 19.83563232 61.0954361 C17.79142115 61.09000217 15.74718719 61.09801237 13.70298767 61.10679626 C12.55703125 61.10755032 11.41107483 61.10830437 10.23039246 61.10908127 C7.40109652 61.08803428 7.40109652 61.08803428 5.55357361 63.36076355 Z M5.55357361 106.36076355 C5.22024028 108.86076355 5.22024028 108.86076355 5.55357361 111.36076355 C8.03543521 113.84262516 8.74749362 113.61113763 12.16694641 113.61244583 C13.6340956 113.62026907 13.6340956 113.62026907 15.13088417 113.62825036 C16.21315977 113.62378892 17.29543537 113.61932747 18.4105072 113.61473083 C19.55419958 113.61785082 20.69789196 113.6209708 21.87624168 113.62418532 C25.06035405 113.63080417 28.24431517 113.6283925 31.42842388 113.62221289 C34.85859694 113.61770347 38.28874892 113.62466462 41.71891785 113.63017273 C48.44239469 113.63908459 55.16582698 113.63713677 61.88930559 113.63134745 C67.35167845 113.62683799 72.81403878 113.62621494 78.27641296 113.62839508 C79.05266569 113.62870155 79.82891841 113.62900801 80.62869394 113.62932377 C82.20543941 113.62996319 83.78218488 113.63061162 85.35893035 113.63126895 C100.15795309 113.63697749 114.95695108 113.63040614 129.75596976 113.61966822 C142.46520948 113.61073223 155.17441267 113.61228412 167.88365173 113.62150574 C182.62827723 113.63219912 197.37288101 113.63642812 212.11750984 113.63028121 C213.68858464 113.62964408 215.25965945 113.62901534 216.83073425 113.62839508 C217.60381373 113.62808653 218.3768932 113.62777798 219.17339933 113.62746008 C224.63173338 113.62573034 230.0900537 113.62865423 235.54838562 113.63335419 C242.19665424 113.63895269 248.84487561 113.63746838 255.49313879 113.6267927 C258.8877736 113.62152203 262.28232951 113.61950281 265.67696381 113.626091 C269.35026922 113.6315143 273.02334917 113.62475154 276.69664001 113.61473083 C278.32005342 113.621423 278.32005342 113.621423 279.97626305 113.62825036 C280.95436251 113.62303487 281.93246197 113.61781937 282.94020081 113.61244583 C283.78893076 113.61212113 284.63766071 113.61179642 285.51210976 113.61146188 C287.77906715 113.54570134 287.77906715 113.54570134 289.55357361 111.36076355 C289.88690694 108.86076355 289.88690694 108.86076355 289.55357361 106.36076355 C287.071712 103.87890194 286.35965359 104.11038947 282.94020081 104.10908127 C281.96210135 104.10386577 280.98400188 104.09865028 279.97626305 104.09327674 C278.35284965 104.0999689 278.35284965 104.0999689 276.69664001 104.10679626 C274.98110145 104.10211629 274.98110145 104.10211629 273.23090553 104.09734178 C270.04679316 104.09072293 266.86283205 104.0931346 263.67872334 104.09931421 C260.24855028 104.10382363 256.81839829 104.09686248 253.38822937 104.09135437 C246.66475253 104.08244251 239.94132024 104.08439033 233.21784163 104.09017965 C227.75546877 104.09468911 222.29310843 104.09531216 216.83073425 104.09313202 C216.05448153 104.09282555 215.27822881 104.09251909 214.47845328 104.09220333 C212.9017078 104.09156391 211.32496233 104.09091548 209.74821687 104.09025815 C194.94919413 104.08454961 180.15019613 104.09112096 165.35117745 104.10185888 C152.64193773 104.11079487 139.93273454 104.10924298 127.22349548 104.10002136 C112.47886999 104.08932797 97.7342662 104.08509898 82.98963737 104.09124589 C81.41856257 104.09188301 79.84748777 104.09251176 78.27641296 104.09313202 C77.50333349 104.09344057 76.73025401 104.09374912 75.93374789 104.09406702 C70.47541384 104.09579676 65.01709352 104.09287287 59.5587616 104.08817291 C52.91049298 104.08257441 46.26227161 104.08405872 39.61400843 104.0947344 C36.21937362 104.10000507 32.8248177 104.10202429 29.43018341 104.0954361 C25.756878 104.0900128 22.08379804 104.09677556 18.4105072 104.10679626 C17.3282316 104.10233482 16.245956 104.09787338 15.13088417 104.09327674 C13.66373498 104.10109998 13.66373498 104.10109998 12.16694641 104.10908127 C11.31821646 104.10940597 10.4694865 104.10973068 9.59503746 104.11006522 C7.32808007 104.17582576 7.32808007 104.17582576 5.55357361 106.36076355 Z M5.55357361 149.36076355 C4.97006856 151.8178573 4.97006856 151.8178573 5.55357361 154.36076355 C9.56191268 157.55945371 13.24392404 157.78854413 18.18247986 157.74171448 C18.94276489 157.74639445 19.70304993 157.75107442 20.4863739 157.75589621 C23.02978544 157.76784659 25.57265822 157.75838899 28.11607361 157.74894714 C29.94119074 157.75301283 31.7663054 157.75835469 33.59141541 157.76487732 C38.54590384 157.77855706 43.50020493 157.77324953 48.45469666 157.76374006 C53.63870246 157.7561469 58.82269218 157.76318812 64.00669861 157.76789856 C72.71245708 157.77335711 81.41813922 157.76616188 90.12388611 157.75187683 C100.19014097 157.73555015 110.25621355 157.74083858 120.32246399 157.75735605 C128.96377625 157.77096807 137.60503363 157.77289196 146.24635315 157.76504004 C151.40803516 157.76036197 156.56963147 157.75974238 161.73130798 157.76964951 C166.58390337 157.77831273 171.43626364 157.77230898 176.28883362 157.75496674 C178.07022206 157.75099846 179.85163028 157.75214176 181.63301086 157.75875473 C184.06383056 157.76694691 186.49389579 157.75667721 188.92466736 157.74171448 C189.63040894 157.74840664 190.33615051 157.75509881 191.0632782 157.76199377 C195.36462279 157.71060202 198.16530635 157.0646309 201.55357361 154.36076355 C202.13707866 151.8178573 202.13707866 151.8178573 201.55357361 149.36076355 C199.07722296 146.8844129 197.65888511 147.11952184 194.27949715 147.09327674 C193.539625 147.09773818 192.79975285 147.10219963 192.03746033 147.10679626 C190.86095067 147.10211629 190.86095067 147.10211629 189.66067314 147.09734178 C187.01812724 147.08932969 184.37580894 147.09569783 181.73326111 147.10197449 C179.8446082 147.09926605 177.95595635 147.09570595 176.06730652 147.09135437 C170.92693255 147.0822106 165.78663855 147.08578279 160.64626312 147.09211254 C155.27665993 147.09716227 149.90706377 147.09248396 144.53746033 147.08934021 C135.51873032 147.08569756 126.50003303 147.09050749 117.48130798 147.10002136 C107.04189113 147.11090648 96.60255239 147.10738111 86.16313744 147.09636855 C77.21366391 147.08730418 68.26421395 147.08600623 59.31473732 147.09124589 C53.96365198 147.09437028 48.61260339 147.09476212 43.26152039 147.08817291 C38.23173602 147.08241241 33.20205275 147.08637249 28.17227936 147.09796143 C26.32190367 147.10061497 24.47151953 147.09983116 22.62114716 147.0954361 C20.10387731 147.09000647 17.58693558 147.09678304 15.06968689 147.10679626 C14.32981474 147.10233482 13.58994259 147.09787338 12.82765007 147.09327674 C8.73909318 147.00196737 8.73909318 147.00196737 5.55357361 149.36076355 Z M222.55357361 149.36076355 C221.97006856 151.8178573 221.97006856 151.8178573 222.55357361 154.36076355 C226.1573354 157.07777692 228.81022325 157.73814569 233.27427673 157.74894714 C234.39894348 157.75840363 235.52361023 157.76786011 236.68235779 157.77760315 C238.49032837 157.76849411 238.49032837 157.76849411 240.33482361 157.75920105 C241.58106506 157.76207123 242.82730652 157.76494141 244.11131287 157.76789856 C247.41719835 157.77046002 250.72265906 157.75840936 254.02848816 157.74162292 C256.05179844 157.73576869 258.07471838 157.74160291 260.0980072 157.75187683 C263.98963005 157.77041063 267.88067667 157.76816378 271.77232361 157.75920105 C272.97763733 157.76527374 274.18295105 157.77134644 275.42478943 157.77760315 C276.54945618 157.76814667 277.67412292 157.75869019 278.83287048 157.74894714 C279.81928528 157.74656036 280.80570007 157.74417358 281.82200623 157.74171448 C285.05428202 157.29093356 286.95773464 156.31786549 289.55357361 154.36076355 C290.13707866 151.8178573 290.13707866 151.8178573 289.55357361 149.36076355 C286.83452105 146.64171099 285.37940346 147.10743434 281.57505798 147.10197449 C279.69300659 147.09251801 279.69300659 147.09251801 277.77293396 147.08287048 C276.39772909 147.08645016 275.02252549 147.0905521 273.64732361 147.09513855 C272.24249708 147.09379182 270.837671 147.09185123 269.43284607 147.08934021 C266.48720364 147.08638929 263.54168243 147.09068546 260.59605408 147.10002136 C256.81618858 147.111416 253.03660709 147.10485634 249.25675201 147.09287643 C246.35545198 147.0856569 243.45421952 147.08794617 240.55291748 147.09313202 C239.15902676 147.09446826 237.76512995 147.09282167 236.37124634 147.08817291 C234.42486179 147.08310644 232.4784558 147.09219485 230.53208923 147.10197449 C229.42337463 147.10356567 228.31466003 147.10515686 227.17234802 147.10679626 C224.3944438 147.09619318 224.3944438 147.09619318 222.55357361 149.36076355 Z M5.55357361 192.36076355 C5.05342407 194.81817892 5.05342407 194.81817892 5.55357361 197.36076355 C8.43193166 200.09317599 10.423707 200.73599896 14.34498596 200.73828697 C15.79535783 200.75002183 15.79535783 200.75002183 17.27503014 200.76199377 C18.33455202 200.7553016 19.39407391 200.74860944 20.48570251 200.74171448 C21.6133584 200.74639445 22.74101429 200.75107442 23.90284157 200.75589621 C27.69539141 200.76789748 31.48758334 200.75836867 35.28013611 200.74894714 C37.99342091 200.75135969 40.70669033 200.75824229 43.41996765 200.76487732 C50.03290058 200.77822923 56.64573146 200.77533046 63.25866842 200.7666394 C68.63230827 200.75986898 74.00591949 200.75894334 79.37956238 200.76221085 C80.14386523 200.76267055 80.90816808 200.76313024 81.69563162 200.76360387 C83.24821457 200.76456303 84.80079751 200.76553567 86.35338044 200.76652165 C100.91785363 200.77507981 115.4822702 200.76523473 130.04673409 200.74912055 C142.54839125 200.73571697 155.04996484 200.73804494 167.55162048 200.75187683 C182.06336277 200.76792513 196.57505542 200.7742558 211.08680534 200.76504004 C212.63373183 200.76408438 214.18065833 200.76314126 215.72758484 200.76221085 C216.48873647 200.76174802 217.24988811 200.76128519 218.03410494 200.76080834 C223.40236197 200.7582162 228.77058756 200.76259428 234.13883972 200.76964951 C240.67942772 200.77805638 247.21990768 200.77580156 253.76048326 200.75980727 C257.09874842 200.75191342 260.43668379 200.7504617 263.77497101 200.75875473 C267.390644 200.76691081 271.00580466 200.75672002 274.6214447 200.74171448 C276.21072753 200.75175273 276.21072753 200.75175273 277.83211708 200.76199377 C278.79903166 200.75417052 279.76594624 200.74634728 280.76216125 200.73828697 C281.59689657 200.73779992 282.43163189 200.73731286 283.29166222 200.73681104 C286.10753768 200.26866587 287.49622196 199.31379829 289.55357361 197.36076355 C290.05372314 194.81817892 290.05372314 194.81817892 289.55357361 192.36076355 C287.071712 189.87890194 286.35965359 190.11038947 282.94020081 190.10908127 C281.96210135 190.10386577 280.98400188 190.09865028 279.97626305 190.09327674 C278.35284965 190.0999689 278.35284965 190.0999689 276.69664001 190.10679626 C274.98110145 190.10211629 274.98110145 190.10211629 273.23090553 190.09734178 C270.04679316 190.09072293 266.86283205 190.0931346 263.67872334 190.09931421 C260.24855028 190.10382363 256.81839829 190.09686248 253.38822937 190.09135437 C246.66475253 190.08244251 239.94132024 190.08439033 233.21784163 190.09017965 C227.75546877 190.09468911 222.29310843 190.09531216 216.83073425 190.09313202 C216.05448153 190.09282555 215.27822881 190.09251909 214.47845328 190.09220333 C212.9017078 190.09156391 211.32496233 190.09091548 209.74821687 190.09025815 C194.94919413 190.08454961 180.15019613 190.09112096 165.35117745 190.10185888 C152.64193773 190.11079487 139.93273454 190.10924298 127.22349548 190.10002136 C112.47886999 190.08932797 97.7342662 190.08509898 82.98963737 190.09124589 C81.41856257 190.09188301 79.84748777 190.09251176 78.27641296 190.09313202 C77.50333349 190.09344057 76.73025401 190.09374912 75.93374789 190.09406702 C70.47541384 190.09579676 65.01709352 190.09287287 59.5587616 190.08817291 C52.91049298 190.08257441 46.26227161 190.08405872 39.61400843 190.0947344 C36.21937362 190.10000507 32.8248177 190.10202429 29.43018341 190.0954361 C25.756878 190.0900128 22.08379804 190.09677556 18.4105072 190.10679626 C17.3282316 190.10233482 16.245956 190.09787338 15.13088417 190.09327674 C13.66373498 190.10109998 13.66373498 190.10109998 12.16694641 190.10908127 C11.31821646 190.10940597 10.4694865 190.10973068 9.59503746 190.11006522 C7.32808007 190.17582576 7.32808007 190.17582576 5.55357361 192.36076355 Z M5.55357361 235.36076355 C4.97006856 237.8178573 4.97006856 237.8178573 5.55357361 240.36076355 C8.70215486 243.4641888 11.12163902 243.74242572 15.45201111 243.76481628 C16.64004333 243.77750046 17.82807556 243.79018463 19.05210876 243.80325317 C20.97095886 243.79884972 20.97095886 243.79884972 22.92857361 243.7943573 C24.24518982 243.79959915 25.56180603 243.804841 26.9183197 243.8102417 C29.70243422 243.81916684 32.48626179 243.81675632 35.27037048 243.80680847 C38.83502386 243.79531156 42.39868768 243.81554251 45.96321106 243.84472561 C49.36838449 243.86749936 52.7733258 243.86062106 56.17857361 243.8568573 C58.09742371 243.87370827 58.09742371 243.87370827 60.05503845 243.89089966 C61.83708679 243.87682823 61.83708679 243.87682823 63.65513611 243.86247253 C64.7000824 243.86230637 65.74502869 243.8621402 66.82164001 243.86196899 C70.20531145 243.24119455 71.3941805 241.96663025 73.55357361 239.36076355 C72.46572393 236.1109322 72.46572393 236.1109322 70.55357361 233.36076355 C68.63669858 233.25631011 66.71595649 233.22221226 64.79624939 233.21549988 C63.56472137 233.20912003 62.33319336 233.20274017 61.06434631 233.19616699 C59.70919331 233.19463826 58.35403978 233.19352433 56.99888611 233.1927948 C55.61744654 233.18958352 54.23600732 233.18621955 52.85456848 233.18270874 C49.95426139 233.17671064 47.05398412 233.17486949 44.15367126 233.17546082 C40.43555002 233.17556236 36.71762006 233.16192085 32.99954414 233.14468861 C30.14453756 233.13357312 27.28957725 233.13154148 24.43455124 233.13207054 C23.06380938 233.13088933 21.69306636 233.12645964 20.32234573 233.11873817 C18.40481774 233.10894993 16.48723394 233.11307757 14.56968689 233.11784363 C13.47794159 233.11641861 12.38619629 233.11499359 11.2613678 233.11352539 C8.33220323 233.16402741 8.33220323 233.16402741 5.55357361 235.36076355 Z M94.5732336 234.72357559 C93.31185984 236.40263946 93.31185984 236.40263946 93.67857361 238.92326355 C94.39746529 241.68692465 94.39746529 241.68692465 97.55357361 243.36076355 C100.0806212 243.55598666 102.49735156 243.63472521 105.02462769 243.62145996 C105.79207654 243.62528551 106.5595254 243.62911106 107.35023028 243.63305253 C109.92971782 243.64339663 112.50898335 243.63938774 115.08848572 243.63542175 C116.93463345 243.63976745 118.78077938 243.64495012 120.62692261 243.65090942 C125.64753482 243.66432595 130.66807188 243.66487515 135.68869853 243.66234612 C139.87625633 243.66127822 144.0637988 243.66615514 148.25135332 243.67095155 C158.12839083 243.68205589 168.0053903 243.68247891 177.88243103 243.67643738 C188.08044027 243.67039555 198.27831161 243.68271182 208.47629732 243.70400745 C217.2245522 243.7216057 225.97276312 243.72762762 234.72103506 243.7243697 C239.94923338 243.72255388 245.17733333 243.72522276 250.40551567 243.73908424 C255.32126729 243.75162912 260.23680347 243.74975024 265.15255165 243.73667336 C266.9585515 243.73430073 268.76456636 243.7370667 270.57054901 243.74529648 C273.0324637 243.75570787 275.49364796 243.74770893 277.95553589 243.73498535 C278.67333644 243.74235964 279.391137 243.74973392 280.13068908 243.75733167 C284.22074229 243.71273941 286.57779942 243.24188352 289.55357361 240.36076355 C289.21129789 237.39010845 289.21129789 237.39010845 288.55357361 234.36076355 C285.53851549 232.85323449 282.42727468 233.21640374 279.12011719 233.22032166 C277.95691654 233.21586497 277.95691654 233.21586497 276.77021688 233.21131825 C274.15770848 233.20260915 271.54524579 233.20112116 268.932724 233.19963074 C267.06539817 233.19500419 265.19807328 233.18997976 263.33074951 233.18458557 C258.24818434 233.17144534 253.16563238 233.16501366 248.08305287 233.16057491 C244.91071789 233.15764731 241.73838655 233.15354314 238.56605339 233.14907074 C228.64926134 233.13539265 218.73247758 233.12572705 208.81567675 233.12186885 C197.35162208 233.11738466 185.88768643 233.09982134 174.42366797 233.07086825 C165.5726961 233.04928704 156.72175781 233.03916651 147.8707599 233.03782773 C142.57941299 233.03677731 137.28817791 233.03081909 131.9968586 233.01300812 C127.02204068 232.99658847 122.04741942 232.99434205 117.07258415 233.00314713 C115.2435847 233.00392074 113.41457493 232.99953236 111.58560181 232.98968887 C109.09483484 232.97706647 106.60477467 232.9827926 104.11401367 232.99327087 C103.38483626 232.98521447 102.65565885 232.97715806 101.90438515 232.96885753 C98.98481094 232.99772038 97.01741781 233.04155954 94.5732336 234.72357559 Z M5.55357361 287.36076355 C5.22024028 289.86076355 5.22024028 289.86076355 5.55357361 292.36076355 C8.02992426 294.8371142 9.4482621 294.60200526 12.82765007 294.62825036 C13.9374583 294.6215582 13.9374583 294.6215582 15.06968689 294.61473083 C16.24619655 294.61941081 16.24619655 294.61941081 17.44647408 294.62418532 C20.08901997 294.63219741 22.73133828 294.62582927 25.37388611 294.61955261 C27.26253901 294.62226105 29.15119086 294.62582115 31.0398407 294.63017273 C36.18021467 294.6393165 41.32050866 294.63574431 46.46088409 294.62941456 C51.83048728 294.62436483 57.20008344 294.62904314 62.56968689 294.63218689 C71.5884169 294.63582954 80.60711419 294.63101961 89.62583923 294.62150574 C100.06525608 294.61062062 110.50459482 294.61414599 120.94400978 294.62515855 C129.89348331 294.63422292 138.84293327 294.63552087 147.7924099 294.63028121 C153.14349524 294.62715682 158.49454382 294.62676498 163.84562683 294.63335419 C168.87541119 294.63911469 173.90509446 294.63515461 178.93486786 294.62356567 C180.78524355 294.62091213 182.63562769 294.62169594 184.48600006 294.626091 C187.00326991 294.63152063 189.52021163 294.62474406 192.03746033 294.61473083 C192.77733248 294.61919228 193.51720463 294.62365372 194.27949715 294.62825036 C198.36805404 294.71955973 198.36805404 294.71955973 201.55357361 292.36076355 C201.88690694 289.86076355 201.88690694 289.86076355 201.55357361 287.36076355 C199.07722296 284.8844129 197.65888511 285.11952184 194.27949715 285.09327674 C193.539625 285.09773818 192.79975285 285.10219963 192.03746033 285.10679626 C190.86095067 285.10211629 190.86095067 285.10211629 189.66067314 285.09734178 C187.01812724 285.08932969 184.37580894 285.09569783 181.73326111 285.10197449 C179.8446082 285.09926605 177.95595635 285.09570595 176.06730652 285.09135437 C170.92693255 285.0822106 165.78663855 285.08578279 160.64626312 285.09211254 C155.27665993 285.09716227 149.90706377 285.09248396 144.53746033 285.08934021 C135.51873032 285.08569756 126.50003303 285.09050749 117.48130798 285.10002136 C107.04189113 285.11090648 96.60255239 285.10738111 86.16313744 285.09636855 C77.21366391 285.08730418 68.26421395 285.08600623 59.31473732 285.09124589 C53.96365198 285.09437028 48.61260339 285.09476212 43.26152039 285.08817291 C38.23173602 285.08241241 33.20205275 285.08637249 28.17227936 285.09796143 C26.32190367 285.10061497 24.47151953 285.09983116 22.62114716 285.0954361 C20.10387731 285.09000647 17.58693558 285.09678304 15.06968689 285.10679626 C14.32981474 285.10233482 13.58994259 285.09787338 12.82765007 285.09327674 C8.73909318 285.00196737 8.73909318 285.00196737 5.55357361 287.36076355 Z M222.55357361 287.36076355 C222.22024028 289.86076355 222.22024028 289.86076355 222.55357361 292.36076355 C225.27262617 295.07981611 226.72774375 294.61409276 230.53208923 294.61955261 C232.41414063 294.62900909 232.41414063 294.62900909 234.33421326 294.63865662 C235.70941813 294.63507694 237.08462173 294.630975 238.45982361 294.62638855 C239.86465014 294.62773528 241.26947622 294.62967587 242.67430115 294.63218689 C245.61994357 294.63513781 248.56546479 294.63084164 251.51109314 294.62150574 C255.29095864 294.6101111 259.07054013 294.61667076 262.8503952 294.62865067 C265.75169523 294.6358702 268.65292769 294.63358093 271.55422974 294.62839508 C272.94812046 294.62705884 274.34201727 294.62870543 275.73590088 294.63335419 C277.68228542 294.63842066 279.62869141 294.62933225 281.57505798 294.61955261 C283.23812988 294.61716583 283.23812988 294.61716583 284.93479919 294.61473083 C287.71270342 294.62533392 287.71270342 294.62533392 289.55357361 292.36076355 C289.88690694 289.86076355 289.88690694 289.86076355 289.55357361 287.36076355 C286.83452105 284.64171099 285.37940346 285.10743434 281.57505798 285.10197449 C279.69300659 285.09251801 279.69300659 285.09251801 277.77293396 285.08287048 C276.39772909 285.08645016 275.02252549 285.0905521 273.64732361 285.09513855 C272.24249708 285.09379182 270.837671 285.09185123 269.43284607 285.08934021 C266.48720364 285.08638929 263.54168243 285.09068546 260.59605408 285.10002136 C256.81618858 285.111416 253.03660709 285.10485634 249.25675201 285.09287643 C246.35545198 285.0856569 243.45421952 285.08794617 240.55291748 285.09313202 C239.15902676 285.09446826 237.76512995 285.09282167 236.37124634 285.08817291 C234.42486179 285.08310644 232.4784558 285.09219485 230.53208923 285.10197449 C229.42337463 285.10356567 228.31466003 285.10515686 227.17234802 285.10679626 C224.3944438 285.09619318 224.3944438 285.09619318 222.55357361 287.36076355 Z M183.41685486 344.83732605 C174.03768205 357.32932627 170.54292899 372.4588421 172.01841736 387.8412323 C174.67532063 405.31473484 183.99817929 419.38571141 198.18247986 429.8334198 C211.51279569 438.42016361 226.82574837 441.35093995 242.42076111 438.70451355 C258.51651984 434.88629675 271.89932112 425.84438467 281.02232361 411.9662323 C289.75231482 397.11188502 292.33776642 380.79421945 287.99107361 363.98576355 C282.72155448 348.02980702 272.35718709 335.33875884 257.55357361 327.36076355 C229.83726415 315.49499528 203.01485937 322.12227146 183.41685486 344.83732605 Z M5.55357361 330.36076355 C5.22024028 332.86076355 5.22024028 332.86076355 5.55357361 335.36076355 C8.1056385 337.91282844 9.0228242 337.61359848 12.56407166 337.62145996 C13.62411407 337.62854477 14.68415649 337.63562958 15.77632141 337.64292908 C17.52811203 337.63921295 17.52811203 337.63921295 19.31529236 337.63542175 C20.54132172 337.64053268 21.76735107 337.64564362 23.03053284 337.65090942 C26.39829085 337.66245158 29.76580325 337.66487531 33.133564 337.66234612 C35.941906 337.66127833 38.75022515 337.66615478 41.55856228 337.67095155 C48.18159117 337.68205548 54.80456335 337.68247897 61.42759705 337.67643738 C68.26798351 337.67039365 75.10816449 337.68271655 81.94851589 337.70400745 C87.81521895 337.72159869 93.68185646 337.7276288 99.54858494 337.7243697 C103.05529934 337.72255295 106.56186713 337.72523181 110.06855774 337.73908424 C113.97640618 337.7539432 117.88399094 337.74471419 121.79185486 337.733078 C122.95971527 337.74072174 124.12757568 337.74836548 125.33082581 337.75624084 C126.39086823 337.74922653 127.45091064 337.74221222 128.54307556 337.73498535 C129.46780167 337.73515309 130.39252777 337.73532084 131.34527588 337.73549366 C132.07401413 337.61183272 132.80275238 337.48817179 133.55357361 337.36076355 C135.86900568 334.59088279 135.86900568 334.59088279 135.24107361 331.73576355 C134.77942221 329.4257439 134.77942221 329.4257439 133.55357361 328.36076355 C131.92597707 328.26036072 130.29401781 328.23000307 128.66333008 328.22705078 C127.60466232 328.2227858 126.54599457 328.21852081 125.45524597 328.21412659 C124.28379028 328.21457977 123.11233459 328.21503296 121.90538025 328.21549988 C120.67949692 328.21214127 119.45361359 328.20878265 118.19058228 328.20532227 C114.81869506 328.19742638 111.44686941 328.19414332 108.07497716 328.19350648 C105.2642065 328.192559 102.4534418 328.18888256 99.64267343 328.18533438 C93.01344245 328.17718221 86.38422505 328.17475084 79.75498962 328.17546082 C72.90728684 328.17606179 66.05966278 328.1655078 59.21197993 328.14971715 C53.34106037 328.1366593 47.47016659 328.13127618 41.59923261 328.13191622 C38.08917855 328.13217174 34.5791944 328.12929157 31.06915474 328.11873817 C27.15645877 328.10729604 23.24387152 328.11179324 19.3311615 328.11784363 C18.16173004 328.11222412 16.99229858 328.10660461 15.78742981 328.10081482 C14.72594223 328.10500931 13.66445465 328.1092038 12.57080078 328.11352539 C11.64477586 328.11298062 10.71875093 328.11243586 9.76466465 328.11187458 C7.34735273 328.15126842 7.34735273 328.15126842 5.55357361 330.36076355 Z M5.55357361 373.36076355 C5.05342407 375.81817892 5.05342407 375.81817892 5.55357361 378.36076355 C8.70758764 381.48635045 11.14586035 381.73646545 15.49107361 381.7240448 C17.20423767 381.723078 17.20423767 381.723078 18.95201111 381.72209167 C20.73478455 381.69792175 20.73478455 381.69792175 22.55357361 381.67326355 C23.74208923 381.67648621 24.93060486 381.67970886 26.15513611 381.68302917 C33.19344406 381.90363352 33.19344406 381.90363352 39.55357361 379.36076355 C40.63382019 376.95966138 40.63382019 376.95966138 40.55357361 374.36076355 C39.53241211 372.58237197 39.53241211 372.58237197 37.55357361 371.36076355 C34.38917305 370.91233462 34.38917305 370.91233462 30.76841736 370.9974823 C30.1115242 370.9969838 29.45463104 370.99648529 28.77783203 370.99597168 C27.39176909 370.99830867 26.00570162 371.0080153 24.61973572 371.02458191 C22.49508377 371.04821894 20.37168338 371.04513547 18.24693298 371.03849792 C11.30767243 370.51576649 11.30767243 370.51576649 5.55357361 373.36076355 Z M66.66317749 372.72288513 C65.30592294 374.38482475 65.30592294 374.38482475 65.61607361 376.92326355 C66.31404522 379.43497171 66.31404522 379.43497171 68.24450684 380.49594116 C71.09372969 381.56306999 73.39264811 381.62196349 76.43614197 381.63542175 C77.6209465 381.64495377 78.80575104 381.65448578 80.02645874 381.66430664 C81.30255508 381.66339523 82.57865143 381.66248383 83.89341736 381.6615448 C85.86478416 381.66797249 85.86478416 381.66797249 87.87597656 381.67453003 C90.65583839 381.68198326 93.4355732 381.68170755 96.21543884 381.67643738 C99.77085489 381.67064398 103.32574977 381.68757423 106.88107967 381.71078205 C110.28104719 381.7290907 113.68090083 381.72533352 117.08091736 381.7240448 C118.99202553 381.73785942 118.99202553 381.73785942 120.94174194 381.75195312 C122.12969864 381.74572433 123.31765533 381.73949554 124.54161072 381.733078 C125.5843364 381.73370743 126.62706207 381.73433685 127.7013855 381.73498535 C130.96078437 381.3073354 132.87609651 380.22208277 135.55357361 378.36076355 C135.21129789 375.39010845 135.21129789 375.39010845 134.55357361 372.36076355 C131.80276986 370.98536167 129.57789917 371.21834238 126.49913025 371.19963074 C125.22763626 371.19002319 123.95614227 371.18041565 122.64611816 371.17051697 C121.25199055 371.16566973 119.85786085 371.16139072 118.46372986 371.15763855 C117.03887937 371.15188757 115.6140289 371.14612983 114.18917847 371.1403656 C111.20069518 371.12985656 108.21223879 371.12401306 105.22373962 371.12052917 C101.39234937 371.11504022 97.56131375 371.09100368 93.73003483 371.06255722 C90.78667151 371.0439452 87.84339393 371.03872606 84.89997673 371.0371933 C83.4873555 371.03416368 82.0747359 371.02612471 80.66217232 371.01300812 C78.68732335 370.99597727 76.71232842 370.99966838 74.7374115 371.00431824 C73.05102318 370.99884979 73.05102318 370.99884979 71.33056641 370.99327087 C68.5473743 371.13878027 68.5473743 371.13878027 66.66317749 372.72288513 Z " fill="#8CC53E" transform="translate(78.44642639160156,49.63923645019531)"/>
<path d="M0 0 C1.70953238 -0.00640819 1.70953238 -0.00640819 3.45360076 -0.01294583 C7.25095817 -0.02114458 11.04719722 0.00625986 14.8444519 0.03364563 C17.57496331 0.03784621 20.30545331 0.03448271 23.03596497 0.03143311 C28.9034381 0.028819 34.77063193 0.04442575 40.63803482 0.0726223 C49.12112841 0.11336222 57.60408777 0.1262902 66.08726858 0.13256226 C79.85259753 0.14348904 93.61777782 0.17671922 107.38302612 0.22407532 C120.74988057 0.27001284 134.11669455 0.30538419 147.48361206 0.32661438 C148.72076787 0.32858481 148.72076787 0.32858481 149.98291673 0.33059504 C154.12079787 0.33712051 158.25867929 0.34343898 162.39656091 0.34965456 C196.69163543 0.40143721 230.98653346 0.48945829 265.28146362 0.60127258 C265.28510925 1.20324966 265.28875488 1.80522675 265.29251099 2.42544556 C265.3345861 8.73712146 265.40410406 15.04808702 265.48898315 21.35932922 C265.51706723 23.70919156 265.5383437 26.05914616 265.55245972 28.40913391 C265.57406347 31.8030834 265.62080389 35.19593812 265.67208862 38.58955383 C265.67393158 40.14492607 265.67393158 40.14492607 265.67581177 41.73171997 C265.87587265 51.87959898 268.36300019 60.10627053 275.28146362 67.60127258 C275.28146362 68.26127258 275.28146362 68.92127258 275.28146362 69.60127258 C275.81771362 69.86810852 276.35396362 70.13494446 276.90646362 70.40986633 C278.66054735 71.2897932 280.40985076 72.17926436 282.15646362 73.07392883 C283.18771362 73.59857727 284.21896362 74.12322571 285.28146362 74.66377258 C286.31271362 75.19099915 287.34396362 75.71822571 288.40646362 76.26142883 C292.45421578 78.14781333 295.78244147 78.72629022 300.23361206 78.80659485 C301.70468414 78.83651268 301.70468414 78.83651268 303.20547485 78.86703491 C304.2566449 78.88374741 305.30781494 78.9004599 306.39083862 78.91767883 C308.01375824 78.94885048 308.01375824 78.94885048 309.66946411 78.98065186 C313.12339975 79.04600189 316.57741099 79.10496488 320.03146362 79.16377258 C322.37391934 79.20697162 324.71636742 79.25058636 327.05880737 79.29463196 C332.79961303 79.40166841 338.54049377 79.50346184 344.28146362 79.60127258 C344.39591583 125.67507649 344.48401599 171.74886535 344.53679027 217.8227834 C344.54304378 223.26261857 344.54951539 228.70245346 344.55612183 234.14228821 C344.55743338 235.22525827 344.55874493 236.30822832 344.56009623 237.42401566 C344.58185089 254.95775656 344.62127279 272.49141546 344.6672276 290.02510773 C344.71399048 308.01720834 344.74175867 326.00926602 344.7519061 344.00142491 C344.75876559 355.10296862 344.78042819 366.20428058 344.82104596 377.30575295 C344.84748219 384.91915871 344.8554626 392.5324447 344.84897051 400.14589302 C344.84576901 404.53806876 344.85066562 408.9298396 344.877491 413.32194328 C344.90189301 417.34673427 344.90300665 421.37084957 344.8859581 425.39567222 C344.88385228 426.8480749 344.89013641 428.30052043 344.90587953 429.75283931 C345.00538454 439.50289612 344.05746915 447.26914918 337.3695057 454.7358588 C331.2080424 460.77956544 325.06588946 462.73895905 316.51547241 462.69465637 C315.84141357 462.68575378 315.16735474 462.6768512 314.47286987 462.66767883 C313.43314026 462.66048828 313.43314026 462.66048828 312.37240601 462.65315247 C310.67538262 462.64072274 308.97840995 462.62166953 307.28146362 462.60127258 C307.2820057 461.8891126 307.28254777 461.17695262 307.28310627 460.44321203 C307.31434321 418.23948459 307.30918734 376.03589832 307.25673866 333.83218786 C307.25047328 328.76530755 307.24451213 323.69842692 307.23873901 318.63154602 C307.23758457 317.62281671 307.23643013 316.6140874 307.23524071 315.57479054 C307.21727104 299.23924938 307.22394899 282.90380648 307.23972779 266.56826705 C307.25536868 249.80781871 307.24454073 233.04753837 307.20911604 216.28711939 C307.18809004 205.94405058 307.18773627 195.60140446 307.21378345 185.25834531 C307.22966512 178.16673714 307.21984793 171.07545532 307.18980347 163.98389417 C307.17322532 159.89158515 307.16799609 155.80008829 307.19327736 151.70780563 C307.21618564 147.95912584 307.20673582 144.2119545 307.17182369 140.46338016 C307.16158864 138.46904845 307.18573667 136.47463119 307.2112059 134.48043585 C307.12463886 128.55061447 306.91719118 124.57218981 302.95341206 119.9744482 C301.753152 118.82476703 300.529054 117.69941158 299.28146362 116.60127258 C298.06373733 115.3535934 296.85252634 114.09949222 295.65054321 112.8366394 C294.35000126 111.52726406 293.04683738 110.22048912 291.74142456 108.91596985 C291.02345703 108.19464371 290.3054895 107.47331757 289.56576538 106.73013306 C287.21840427 104.37335815 284.867371 102.02029128 282.51583862 99.66767883 C280.87385891 98.0224829 279.23195333 96.37721298 277.59011841 94.73187256 C274.16250893 91.29829804 270.73286183 87.86677368 267.30197144 84.43647766 C262.89957749 80.03418589 258.50413468 75.62502262 254.11037827 71.21411228 C250.72869047 67.82133422 247.34249619 64.43308219 243.9549942 61.04611015 C242.33142873 59.42136271 240.709489 57.79498905 239.08919525 56.16697884 C236.832136 53.90016794 234.56888479 51.63972611 232.30392456 49.3808136 C231.63375305 48.70502258 230.96358154 48.02923157 230.27310181 47.33296204 C229.65644653 46.72050125 229.03979126 46.10804047 228.40444946 45.47702026 C227.60368296 44.67543661 227.60368296 44.67543661 226.78673935 43.85765934 C224.05156506 41.57473091 221.36631365 41.4744017 217.96112537 41.46260738 C216.63021703 41.45439572 216.63021703 41.45439572 215.27242166 41.44601816 C214.29675026 41.44504005 213.32107887 41.44406195 212.31584167 41.4430542 C211.28013965 41.43811622 210.24443763 41.43317824 209.1773507 41.42809063 C205.69032816 41.41267417 202.20332408 41.40434377 198.71627808 41.39595032 C196.22325476 41.38637506 193.73023309 41.37636519 191.23721313 41.36595154 C185.86138256 41.34447783 180.48555459 41.32604094 175.10970497 41.3103466 C167.33709644 41.28764991 159.56451516 41.2595068 151.79192974 41.23002733 C139.18192638 41.18234897 126.57191187 41.13908544 113.96188354 41.09858704 C101.71122368 41.05923335 89.46057372 41.01780743 77.20993042 40.97358704 C76.45500871 40.97086276 75.700087 40.96813849 74.92228887 40.96533167 C71.13513062 40.95165221 67.34797253 40.93793193 63.5608145 40.92419136 C32.13438463 40.81022274 0.70793402 40.7034876 -30.71853638 40.60127258 C-30.76425924 37.55552787 -30.79765221 34.51047694 -30.82400513 31.46455383 C-30.83814453 30.60704529 -30.85228394 29.74953674 -30.86685181 28.86604309 C-30.92024976 20.63286992 -29.01518082 15.18133597 -24.59353638 8.28877258 C-17.26866405 1.44160932 -9.77117417 -0.1357054 0 0 Z " fill="#8DC63E" transform="translate(122.71853637695313,-0.6012725830078125)"/>
<path d="M0 0 C10.08463923 7.54667169 18.43786426 18.02699979 20.34375 30.75390625 C21.61887656 46.31805266 20.0214786 59.05347501 10.34375 71.75390625 C9.60125 72.78515625 8.85875 73.81640625 8.09375 74.87890625 C1.33560896 81.94423551 -6.34974667 85.98871517 -15.65625 88.75390625 C-16.25824219 88.94597656 -16.86023438 89.13804687 -17.48046875 89.3359375 C-30.66995303 91.86964453 -43.90213232 89.36885331 -55.40625 82.62890625 C-67.236504 74.54087545 -74.05222046 63.6773411 -77.15234375 49.82421875 C-79.41591454 36.0322293 -76.33407888 23.35789763 -68.65625 11.75390625 C-52.62806478 -10.21454936 -22.58109139 -14.62638874 0 0 Z " fill="#8DC63E" transform="translate(337.65625,389.24609375)"/>
<path d="M0 0 C4.04489386 1.61669215 6.76642316 4.48453857 9.77832031 7.51953125 C10.34461151 8.08231781 10.91090271 8.64510437 11.49435425 9.22494507 C13.36066702 11.08247044 15.21958718 12.94719782 17.078125 14.8125 C18.37248975 16.10551762 19.66715128 17.39823822 20.96209717 18.69067383 C23.67200778 21.39763755 26.37827154 24.10818211 29.08203125 26.82128906 C32.55463671 30.30531153 36.03617321 33.78024903 39.52046585 37.25257874 C42.1936971 39.91859914 44.86216643 42.58934468 47.52919769 45.26156616 C48.81160248 46.54530841 50.09550367 47.82755756 51.38089752 49.10830688 C53.17189072 50.89424516 54.95638758 52.68642648 56.73925781 54.48046875 C57.27531647 55.01247894 57.81137512 55.54448914 58.36367798 56.09262085 C62 59.77146851 62 59.77146851 62 62 C56.34412654 62.09958872 50.68877422 62.17180596 45.03222656 62.21972656 C43.11188861 62.23972336 41.19161061 62.26693006 39.27148438 62.30175781 C16.06611765 62.71183186 16.06611765 62.71183186 7.125 54.9375 C-1.80461114 44.86588123 -0.4849447 31.87650006 -0.25 19.3125 C-0.22989983 17.43556598 -0.2116553 15.55861112 -0.1953125 13.68164062 C-0.15160563 9.12057194 -0.08277384 4.56052012 0 0 Z " fill="#8DC63E" transform="translate(350,58)"/>
<path d="M0 0 C4.04489386 1.61669215 6.76642316 4.48453857 9.77832031 7.51953125 C10.34461151 8.08231781 10.91090271 8.64510437 11.49435425 9.22494507 C13.36066702 11.08247044 15.21958718 12.94719782 17.078125 14.8125 C18.37248975 16.10551762 19.66715128 17.39823822 20.96209717 18.69067383 C23.67200778 21.39763755 26.37827154 24.10818211 29.08203125 26.82128906 C32.55463671 30.30531153 36.03617321 33.78024903 39.52046585 37.25257874 C42.1936971 39.91859914 44.86216643 42.58934468 47.52919769 45.26156616 C48.81160248 46.54530841 50.09550367 47.82755756 51.38089752 49.10830688 C53.17189072 50.89424516 54.95638758 52.68642648 56.73925781 54.48046875 C57.27531647 55.01247894 57.81137512 55.54448914 58.36367798 56.09262085 C62 59.77146851 62 59.77146851 62 62 C56.20173802 62.12445087 50.40426903 62.21473829 44.60498047 62.2746582 C42.63609253 62.29966047 40.66729607 62.333674 38.69873047 62.37719727 C16.90956309 62.84655338 16.90956309 62.84655338 7.5625 54.9375 C0.92626692 46.70857098 -0.16459683 39.48042161 -0.09765625 29.1015625 C-0.0962413 28.26660248 -0.09482635 27.43164246 -0.09336853 26.57138062 C-0.08780174 23.92254958 -0.07525547 21.2738052 -0.0625 18.625 C-0.0574807 16.82161581 -0.05291855 15.01823029 -0.04882812 13.21484375 C-0.0378432 8.80986279 -0.02060163 4.40494606 0 0 Z " fill="#8DC53E" transform="translate(397,7)"/>
</svg>
